# xmcd
#
# Track frame offsets: 
#        150
#        9865
#        27327
#        46898
#        61191
#        65023
#        90953
#        112259
#        129461
#        152173
#        168455
#        191585
#        209585
#        237205
#        256721
#
# Disc length: 3791 seconds
#
# Revision: 0
# Processed by: cddbd v1.5.2PL0 Copyright (c) Steve Scherf et al.
# Submitted via: ExactAudioCopy v0.99pb5
#
DISCID=c40ecd0f
DTITLE=Various Artist - Earotic - Sweet Lounge Music 3
DYEAR=2012
DGENRE=Other
TTITLE0=Diana Ross - Love Is Here To Stay [Album Version]
TTITLE1=Sergio Mendes feat. India.Arie - Timeless
TTITLE2=Marvin Gaye - Let's Get It On [Da Producers MPG Groove Mix]
TTITLE3=Billie Holiday - Billie's Blues [Daniel Y Remix - Clean Versio
TTITLE3=n]
TTITLE4=Beady Belle - The Ambiguous Song [Interlude]
TTITLE5=Beady Belle - Bella [Album Version]
TTITLE6=Traffic Jam - Jamany 'S' Pirates
TTITLE7=Urban Species - Woman [French Radio Edit Florent Prabel Remix]
TTITLE8=Hélèna - M'en Aller [Montmartre Remix By Flush]
TTITLE9=Mayer Hawthorne - The Walk
TTITLE10=Erykah Badu - Bag Lady [Soul Carib Remix]
TTITLE11=Aretha Franklin - Wonderful
TTITLE12=Lionel Richie - Love Will Find A Way [Album Version]
TTITLE13=Ben L'oncle Soul - I Don't Wanna Waste
TTITLE14=Jonathan Jeremiah - Happiness [Quiet Village Remix]
EXTD=
EXTT0=
EXTT1=
EXTT2=
EXTT3=
EXTT4=
EXTT5=
EXTT6=
EXTT7=
EXTT8=
EXTT9=
EXTT10=
EXTT11=
EXTT12=
EXTT13=
EXTT14=
PLAYORDER=
